<?xml version="1.0" standalone="no"?>
<!DOCTYPE svg PUBLIC "-//W3C//DTD SVG 20010904//EN"
 "http://www.w3.org/TR/2001/REC-SVG-20010904/DTD/svg10.dtd">
<svg version="1.0" xmlns="http://www.w3.org/2000/svg"
 width="700.000000pt" height="700.000000pt" viewBox="0 0 700.000000 700.000000"
 preserveAspectRatio="xMidYMid meet">
<metadata>
Created by potrace 1.11, written by Peter Selinger 2001-2013
</metadata>
<g transform="translate(0.000000,700.000000) scale(0.100000,-0.100000)"
fill="#000000" stroke="none">
<path d="M6725 6536 c-148 -74 -499 -247 -780 -386 -481 -238 -860 -426 -2090
-1035 -286 -142 -704 -349 -930 -460 -225 -112 -684 -339 -1020 -505 -335
-166 -783 -387 -995 -492 -212 -104 -394 -194 -404 -200 -21 -11 -195 -97
-378 -186 -64 -31 -117 -60 -117 -63 -1 -4 158 -75 351 -159 194 -84 520 -224
723 -312 204 -88 393 -170 420 -182 28 -13 143 -62 256 -111 l206 -88 1 -351
c0 -193 1 -500 1 -683 l1 -332 190 110 c105 60 208 120 230 134 22 14 41 25
44 25 2 0 66 37 142 81 77 45 157 92 179 104 22 12 115 65 207 118 92 54 174
100 181 103 14 5 61 -24 437 -271 91 -59 221 -145 290 -190 69 -45 251 -164
405 -265 154 -100 361 -236 460 -301 415 -272 470 -308 473 -305 3 3 86 291
97 336 2 8 31 109 63 225 33 116 92 325 132 465 39 140 99 350 132 465 33 116
66 233 73 260 7 28 42 154 78 280 36 127 93 329 127 450 33 121 65 234 71 250
12 38 149 524 154 548 5 24 8 34 39 137 23 77 138 485 221 785 19 66 75 264
125 440 50 176 92 327 94 336 4 14 47 167 131 464 19 66 77 273 130 460 53
187 98 347 100 355 2 8 8 30 14 48 5 17 9 32 8 32 -1 0 -123 -60 -272 -134z"/>
</g>
</svg>
